<mxfile host="app.diagrams.net" modified="2020-09-08T04:27:28.676Z" agent="5.0 (Windows NT 10.0; Win64; x64) AppleWebKit/537.36 (KHTML, like Gecko) Chrome/85.0.4183.83 Safari/537.36" etag="18g1_kkTB-8FSwELQeP2" version="13.6.6" type="github">
  <diagram id="C5RBs43oDa-KdzZeNtuy" name="Page-1">
    <mxGraphModel dx="1730" dy="2127" grid="1" gridSize="10" guides="1" tooltips="1" connect="1" arrows="1" fold="1" page="1" pageScale="1" pageWidth="827" pageHeight="1169" background="#283618" math="0" shadow="0">
      <root>
        <mxCell id="WIyWlLk6GJQsqaUBKTNV-0" />
        <mxCell id="WIyWlLk6GJQsqaUBKTNV-1" parent="WIyWlLk6GJQsqaUBKTNV-0" />
        <mxCell id="KNs_eEzD3WBDnFdoHL3F-1" value="" style="edgeStyle=orthogonalEdgeStyle;orthogonalLoop=1;jettySize=auto;html=1;strokeColor=#DDA15E;fontColor=#FEFAE0;labelBackgroundColor=#283618;sketch=1;curved=1;" edge="1" parent="WIyWlLk6GJQsqaUBKTNV-1" source="WIyWlLk6GJQsqaUBKTNV-3" target="KNs_eEzD3WBDnFdoHL3F-0">
          <mxGeometry relative="1" as="geometry" />
        </mxCell>
        <mxCell id="WIyWlLk6GJQsqaUBKTNV-3" value="手机" style="whiteSpace=wrap;html=1;fontSize=12;glass=0;strokeWidth=1;shadow=0;fillColor=#BC6C25;strokeColor=#DDA15E;fontColor=#FEFAE0;rounded=1;sketch=1;" parent="WIyWlLk6GJQsqaUBKTNV-1" vertex="1">
          <mxGeometry x="160" y="70" width="120" height="60" as="geometry" />
        </mxCell>
        <mxCell id="KNs_eEzD3WBDnFdoHL3F-4" value="" style="edgeStyle=orthogonalEdgeStyle;orthogonalLoop=1;jettySize=auto;html=1;strokeColor=#DDA15E;fontColor=#FEFAE0;labelBackgroundColor=#283618;sketch=1;curved=1;" edge="1" parent="WIyWlLk6GJQsqaUBKTNV-1" source="KNs_eEzD3WBDnFdoHL3F-0" target="KNs_eEzD3WBDnFdoHL3F-3">
          <mxGeometry relative="1" as="geometry" />
        </mxCell>
        <mxCell id="KNs_eEzD3WBDnFdoHL3F-6" value="" style="edgeStyle=orthogonalEdgeStyle;orthogonalLoop=1;jettySize=auto;html=1;strokeColor=#DDA15E;fontColor=#FEFAE0;labelBackgroundColor=#283618;sketch=1;curved=1;" edge="1" parent="WIyWlLk6GJQsqaUBKTNV-1" source="KNs_eEzD3WBDnFdoHL3F-0" target="KNs_eEzD3WBDnFdoHL3F-5">
          <mxGeometry relative="1" as="geometry">
            <Array as="points">
              <mxPoint x="500" y="100" />
              <mxPoint x="500" y="-150" />
            </Array>
          </mxGeometry>
        </mxCell>
        <mxCell id="KNs_eEzD3WBDnFdoHL3F-8" value="" style="edgeStyle=orthogonalEdgeStyle;orthogonalLoop=1;jettySize=auto;html=1;strokeColor=#DDA15E;fontColor=#FEFAE0;labelBackgroundColor=#283618;sketch=1;curved=1;" edge="1" parent="WIyWlLk6GJQsqaUBKTNV-1" source="KNs_eEzD3WBDnFdoHL3F-0" target="KNs_eEzD3WBDnFdoHL3F-7">
          <mxGeometry relative="1" as="geometry">
            <Array as="points">
              <mxPoint x="500" y="100" />
              <mxPoint x="500" y="370" />
            </Array>
          </mxGeometry>
        </mxCell>
        <mxCell id="KNs_eEzD3WBDnFdoHL3F-0" value="bootloader分区" style="whiteSpace=wrap;html=1;shadow=0;strokeWidth=1;glass=0;fillColor=#BC6C25;strokeColor=#DDA15E;fontColor=#FEFAE0;rounded=1;sketch=1;" vertex="1" parent="WIyWlLk6GJQsqaUBKTNV-1">
          <mxGeometry x="360" y="70" width="120" height="60" as="geometry" />
        </mxCell>
        <mxCell id="KNs_eEzD3WBDnFdoHL3F-2" value="通电" style="text;html=1;strokeColor=none;fillColor=none;align=center;verticalAlign=middle;whiteSpace=wrap;fontColor=#FEFAE0;rounded=1;sketch=1;" vertex="1" parent="WIyWlLk6GJQsqaUBKTNV-1">
          <mxGeometry x="300" y="70" width="40" height="20" as="geometry" />
        </mxCell>
        <mxCell id="KNs_eEzD3WBDnFdoHL3F-18" value="" style="edgeStyle=orthogonalEdgeStyle;rounded=1;sketch=1;orthogonalLoop=1;jettySize=auto;html=1;strokeColor=#DDA15E;fillColor=#BC6C25;fontColor=#FEFAE0;curved=1;" edge="1" parent="WIyWlLk6GJQsqaUBKTNV-1" source="KNs_eEzD3WBDnFdoHL3F-3" target="KNs_eEzD3WBDnFdoHL3F-17">
          <mxGeometry relative="1" as="geometry" />
        </mxCell>
        <mxCell id="KNs_eEzD3WBDnFdoHL3F-3" value="boot分区" style="whiteSpace=wrap;html=1;shadow=0;strokeWidth=1;glass=0;fillColor=#BC6C25;strokeColor=#DDA15E;fontColor=#FEFAE0;rounded=1;sketch=1;" vertex="1" parent="WIyWlLk6GJQsqaUBKTNV-1">
          <mxGeometry x="560" y="70" width="120" height="60" as="geometry" />
        </mxCell>
        <mxCell id="KNs_eEzD3WBDnFdoHL3F-5" value="bootloader模式" style="whiteSpace=wrap;html=1;shadow=0;strokeWidth=1;glass=0;fillColor=#BC6C25;strokeColor=#DDA15E;fontColor=#FEFAE0;rounded=1;sketch=1;" vertex="1" parent="WIyWlLk6GJQsqaUBKTNV-1">
          <mxGeometry x="560" y="-180" width="120" height="60" as="geometry" />
        </mxCell>
        <mxCell id="KNs_eEzD3WBDnFdoHL3F-20" value="" style="edgeStyle=orthogonalEdgeStyle;rounded=1;sketch=1;orthogonalLoop=1;jettySize=auto;html=1;strokeColor=#DDA15E;fillColor=#BC6C25;fontColor=#FEFAE0;curved=1;" edge="1" parent="WIyWlLk6GJQsqaUBKTNV-1" source="KNs_eEzD3WBDnFdoHL3F-7" target="KNs_eEzD3WBDnFdoHL3F-19">
          <mxGeometry relative="1" as="geometry" />
        </mxCell>
        <mxCell id="KNs_eEzD3WBDnFdoHL3F-7" value="recovery分区" style="whiteSpace=wrap;html=1;shadow=0;strokeWidth=1;glass=0;fillColor=#BC6C25;strokeColor=#DDA15E;fontColor=#FEFAE0;rounded=1;sketch=1;" vertex="1" parent="WIyWlLk6GJQsqaUBKTNV-1">
          <mxGeometry x="560" y="340" width="120" height="60" as="geometry" />
        </mxCell>
        <mxCell id="KNs_eEzD3WBDnFdoHL3F-9" value="组合按键" style="text;html=1;strokeColor=none;fillColor=none;align=center;verticalAlign=middle;whiteSpace=wrap;fontColor=#FEFAE0;rounded=1;sketch=1;" vertex="1" parent="WIyWlLk6GJQsqaUBKTNV-1">
          <mxGeometry x="420" y="-80" width="74" height="20" as="geometry" />
        </mxCell>
        <mxCell id="KNs_eEzD3WBDnFdoHL3F-10" value="组合按键" style="text;html=1;strokeColor=none;fillColor=none;align=center;verticalAlign=middle;whiteSpace=wrap;fontColor=#FEFAE0;rounded=1;sketch=1;" vertex="1" parent="WIyWlLk6GJQsqaUBKTNV-1">
          <mxGeometry x="414" y="250" width="74" height="20" as="geometry" />
        </mxCell>
        <mxCell id="KNs_eEzD3WBDnFdoHL3F-13" value="正常模式" style="text;html=1;strokeColor=none;fillColor=none;align=center;verticalAlign=middle;whiteSpace=wrap;fontColor=#FEFAE0;rounded=1;sketch=1;" vertex="1" parent="WIyWlLk6GJQsqaUBKTNV-1">
          <mxGeometry x="486" y="70" width="74" height="20" as="geometry" />
        </mxCell>
        <mxCell id="KNs_eEzD3WBDnFdoHL3F-15" value="" style="edgeStyle=orthogonalEdgeStyle;orthogonalLoop=1;jettySize=auto;html=1;strokeColor=#DDA15E;fontColor=#FEFAE0;labelBackgroundColor=#283618;sketch=1;dashed=1;curved=1;" edge="1" parent="WIyWlLk6GJQsqaUBKTNV-1" source="KNs_eEzD3WBDnFdoHL3F-14" target="KNs_eEzD3WBDnFdoHL3F-5">
          <mxGeometry relative="1" as="geometry" />
        </mxCell>
        <mxCell id="KNs_eEzD3WBDnFdoHL3F-14" value="分区刷写" style="ellipse;whiteSpace=wrap;html=1;fillColor=#BC6C25;strokeColor=#DDA15E;fontColor=#FEFAE0;rounded=1;sketch=1;" vertex="1" parent="WIyWlLk6GJQsqaUBKTNV-1">
          <mxGeometry x="770" y="-190" width="120" height="80" as="geometry" />
        </mxCell>
        <mxCell id="KNs_eEzD3WBDnFdoHL3F-16" value="fastboot" style="text;html=1;strokeColor=none;fillColor=none;align=center;verticalAlign=middle;whiteSpace=wrap;fontColor=#FEFAE0;rounded=1;sketch=1;" vertex="1" parent="WIyWlLk6GJQsqaUBKTNV-1">
          <mxGeometry x="700" y="-180" width="74" height="20" as="geometry" />
        </mxCell>
        <mxCell id="KNs_eEzD3WBDnFdoHL3F-27" value="" style="edgeStyle=orthogonalEdgeStyle;curved=1;rounded=1;sketch=1;orthogonalLoop=1;jettySize=auto;html=1;strokeColor=#DDA15E;fillColor=#BC6C25;fontColor=#FEFAE0;" edge="1" parent="WIyWlLk6GJQsqaUBKTNV-1" source="KNs_eEzD3WBDnFdoHL3F-17" target="KNs_eEzD3WBDnFdoHL3F-26">
          <mxGeometry relative="1" as="geometry" />
        </mxCell>
        <mxCell id="KNs_eEzD3WBDnFdoHL3F-17" value="linux内核" style="whiteSpace=wrap;html=1;rounded=1;shadow=0;fontColor=#FEFAE0;strokeColor=#DDA15E;strokeWidth=1;fillColor=#BC6C25;glass=0;sketch=1;" vertex="1" parent="WIyWlLk6GJQsqaUBKTNV-1">
          <mxGeometry x="770" y="70" width="120" height="60" as="geometry" />
        </mxCell>
        <mxCell id="KNs_eEzD3WBDnFdoHL3F-19" value="Linux内核-Init-recovery启动" style="whiteSpace=wrap;html=1;rounded=1;shadow=0;fontColor=#FEFAE0;strokeColor=#DDA15E;strokeWidth=1;fillColor=#BC6C25;glass=0;sketch=1;" vertex="1" parent="WIyWlLk6GJQsqaUBKTNV-1">
          <mxGeometry x="770" y="340" width="120" height="60" as="geometry" />
        </mxCell>
        <mxCell id="KNs_eEzD3WBDnFdoHL3F-22" value="" style="edgeStyle=orthogonalEdgeStyle;rounded=1;sketch=1;orthogonalLoop=1;jettySize=auto;html=1;strokeColor=#DDA15E;fillColor=#BC6C25;fontColor=#FEFAE0;dashed=1;curved=1;" edge="1" parent="WIyWlLk6GJQsqaUBKTNV-1" source="KNs_eEzD3WBDnFdoHL3F-21" target="KNs_eEzD3WBDnFdoHL3F-19">
          <mxGeometry relative="1" as="geometry" />
        </mxCell>
        <mxCell id="KNs_eEzD3WBDnFdoHL3F-21" value="系统更新固件" style="ellipse;whiteSpace=wrap;html=1;rounded=1;sketch=1;strokeColor=#DDA15E;fillColor=#BC6C25;fontColor=#FEFAE0;" vertex="1" parent="WIyWlLk6GJQsqaUBKTNV-1">
          <mxGeometry x="980" y="330" width="120" height="80" as="geometry" />
        </mxCell>
        <mxCell id="KNs_eEzD3WBDnFdoHL3F-24" value="" style="edgeStyle=orthogonalEdgeStyle;rounded=1;sketch=1;orthogonalLoop=1;jettySize=auto;html=1;strokeColor=#DDA15E;fillColor=#BC6C25;fontColor=#FEFAE0;dashed=1;curved=1;" edge="1" parent="WIyWlLk6GJQsqaUBKTNV-1" source="KNs_eEzD3WBDnFdoHL3F-23" target="KNs_eEzD3WBDnFdoHL3F-19">
          <mxGeometry relative="1" as="geometry">
            <Array as="points">
              <mxPoint x="820" y="500" />
            </Array>
          </mxGeometry>
        </mxCell>
        <mxCell id="KNs_eEzD3WBDnFdoHL3F-23" value="擦除用户数据" style="ellipse;whiteSpace=wrap;html=1;rounded=1;sketch=1;strokeColor=#DDA15E;fillColor=#BC6C25;fontColor=#FEFAE0;" vertex="1" parent="WIyWlLk6GJQsqaUBKTNV-1">
          <mxGeometry x="980" y="470" width="120" height="80" as="geometry" />
        </mxCell>
        <mxCell id="KNs_eEzD3WBDnFdoHL3F-30" value="" style="edgeStyle=orthogonalEdgeStyle;curved=1;rounded=1;sketch=1;orthogonalLoop=1;jettySize=auto;html=1;strokeColor=#DDA15E;fillColor=#BC6C25;fontColor=#FEFAE0;" edge="1" parent="WIyWlLk6GJQsqaUBKTNV-1" source="KNs_eEzD3WBDnFdoHL3F-26" target="KNs_eEzD3WBDnFdoHL3F-29">
          <mxGeometry relative="1" as="geometry" />
        </mxCell>
        <mxCell id="KNs_eEzD3WBDnFdoHL3F-31" value="" style="edgeStyle=orthogonalEdgeStyle;curved=1;rounded=1;sketch=1;orthogonalLoop=1;jettySize=auto;html=1;strokeColor=#DDA15E;fillColor=#BC6C25;fontColor=#FEFAE0;" edge="1" parent="WIyWlLk6GJQsqaUBKTNV-1" source="KNs_eEzD3WBDnFdoHL3F-26" target="KNs_eEzD3WBDnFdoHL3F-29">
          <mxGeometry relative="1" as="geometry" />
        </mxCell>
        <mxCell id="KNs_eEzD3WBDnFdoHL3F-33" value="" style="edgeStyle=orthogonalEdgeStyle;curved=1;rounded=1;sketch=1;orthogonalLoop=1;jettySize=auto;html=1;strokeColor=#DDA15E;fillColor=#BC6C25;fontColor=#FEFAE0;" edge="1" parent="WIyWlLk6GJQsqaUBKTNV-1" source="KNs_eEzD3WBDnFdoHL3F-26" target="KNs_eEzD3WBDnFdoHL3F-32">
          <mxGeometry relative="1" as="geometry" />
        </mxCell>
        <mxCell id="KNs_eEzD3WBDnFdoHL3F-26" value="Init程序" style="whiteSpace=wrap;html=1;rounded=1;shadow=0;fontColor=#FEFAE0;strokeColor=#DDA15E;strokeWidth=1;fillColor=#BC6C25;glass=0;sketch=1;" vertex="1" parent="WIyWlLk6GJQsqaUBKTNV-1">
          <mxGeometry x="970" y="70" width="120" height="60" as="geometry" />
        </mxCell>
        <mxCell id="KNs_eEzD3WBDnFdoHL3F-28" value="Init进程：第一个用户进程" style="text;html=1;strokeColor=none;fillColor=none;align=center;verticalAlign=middle;whiteSpace=wrap;rounded=0;sketch=1;fontColor=#FEFAE0;" vertex="1" parent="WIyWlLk6GJQsqaUBKTNV-1">
          <mxGeometry x="910" y="40" width="260" height="20" as="geometry" />
        </mxCell>
        <mxCell id="KNs_eEzD3WBDnFdoHL3F-29" value="读取init.c并执行&lt;br&gt;根据fstab分区表挂载分区&lt;br&gt;启动Zygote等&lt;br&gt;/style/bin/app_process......" style="text;html=1;strokeColor=none;fillColor=none;align=center;verticalAlign=middle;whiteSpace=wrap;rounded=0;sketch=1;fontColor=#FEFAE0;" vertex="1" parent="WIyWlLk6GJQsqaUBKTNV-1">
          <mxGeometry x="945" y="140" width="170" height="70" as="geometry" />
        </mxCell>
        <mxCell id="KNs_eEzD3WBDnFdoHL3F-37" value="" style="edgeStyle=orthogonalEdgeStyle;curved=1;rounded=1;sketch=1;orthogonalLoop=1;jettySize=auto;html=1;strokeColor=#DDA15E;fillColor=#BC6C25;fontColor=#FEFAE0;" edge="1" parent="WIyWlLk6GJQsqaUBKTNV-1" source="KNs_eEzD3WBDnFdoHL3F-32" target="KNs_eEzD3WBDnFdoHL3F-36">
          <mxGeometry relative="1" as="geometry" />
        </mxCell>
        <mxCell id="KNs_eEzD3WBDnFdoHL3F-32" value="App_main.cpp.main()" style="whiteSpace=wrap;html=1;rounded=1;shadow=0;fontColor=#FEFAE0;strokeColor=#DDA15E;strokeWidth=1;fillColor=#BC6C25;glass=0;sketch=1;" vertex="1" parent="WIyWlLk6GJQsqaUBKTNV-1">
          <mxGeometry x="1170" y="70" width="120" height="60" as="geometry" />
        </mxCell>
        <mxCell id="KNs_eEzD3WBDnFdoHL3F-34" value="Zygote进程：Android系统的母进程" style="text;html=1;strokeColor=none;fillColor=none;align=center;verticalAlign=middle;whiteSpace=wrap;rounded=0;sketch=1;fontColor=#FEFAE0;" vertex="1" parent="WIyWlLk6GJQsqaUBKTNV-1">
          <mxGeometry x="1180" y="40" width="120" height="20" as="geometry" />
        </mxCell>
        <mxCell id="KNs_eEzD3WBDnFdoHL3F-35" value="1.解析app_process的参数&lt;br&gt;2.设置当前进程名位zygote&lt;br&gt;3.调用AndroidRuntime.start" style="text;html=1;strokeColor=none;fillColor=none;align=center;verticalAlign=middle;whiteSpace=wrap;rounded=0;sketch=1;fontColor=#FEFAE0;" vertex="1" parent="WIyWlLk6GJQsqaUBKTNV-1">
          <mxGeometry x="1150" y="150" width="170" height="40" as="geometry" />
        </mxCell>
        <mxCell id="KNs_eEzD3WBDnFdoHL3F-40" value="" style="edgeStyle=orthogonalEdgeStyle;curved=1;rounded=1;sketch=1;orthogonalLoop=1;jettySize=auto;html=1;strokeColor=#DDA15E;fillColor=#BC6C25;fontColor=#FEFAE0;" edge="1" parent="WIyWlLk6GJQsqaUBKTNV-1" source="KNs_eEzD3WBDnFdoHL3F-36" target="KNs_eEzD3WBDnFdoHL3F-39">
          <mxGeometry relative="1" as="geometry" />
        </mxCell>
        <mxCell id="KNs_eEzD3WBDnFdoHL3F-36" value="AndroidRuntime.cpp.start()" style="whiteSpace=wrap;html=1;rounded=1;shadow=0;fontColor=#FEFAE0;strokeColor=#DDA15E;strokeWidth=1;fillColor=#BC6C25;glass=0;sketch=1;" vertex="1" parent="WIyWlLk6GJQsqaUBKTNV-1">
          <mxGeometry x="1370" y="70" width="160" height="60" as="geometry" />
        </mxCell>
        <mxCell id="KNs_eEzD3WBDnFdoHL3F-38" value="1.启动虚拟机startVm&lt;br&gt;2.注册JNI方法startReg&lt;br&gt;3.反射调用ZygoteInit.main" style="text;html=1;strokeColor=none;fillColor=none;align=center;verticalAlign=middle;whiteSpace=wrap;rounded=0;sketch=1;fontColor=#FEFAE0;" vertex="1" parent="WIyWlLk6GJQsqaUBKTNV-1">
          <mxGeometry x="1360" y="150" width="170" height="40" as="geometry" />
        </mxCell>
        <mxCell id="KNs_eEzD3WBDnFdoHL3F-43" value="" style="edgeStyle=orthogonalEdgeStyle;curved=1;rounded=1;sketch=1;orthogonalLoop=1;jettySize=auto;html=1;strokeColor=#DDA15E;fillColor=#BC6C25;fontColor=#FEFAE0;" edge="1" parent="WIyWlLk6GJQsqaUBKTNV-1" source="KNs_eEzD3WBDnFdoHL3F-39" target="KNs_eEzD3WBDnFdoHL3F-42">
          <mxGeometry relative="1" as="geometry" />
        </mxCell>
        <mxCell id="KNs_eEzD3WBDnFdoHL3F-39" value="ZygoteInit.java.main()" style="whiteSpace=wrap;html=1;rounded=1;shadow=0;fontColor=#FEFAE0;strokeColor=#DDA15E;strokeWidth=1;fillColor=#BC6C25;glass=0;sketch=1;" vertex="1" parent="WIyWlLk6GJQsqaUBKTNV-1">
          <mxGeometry x="1630" y="70" width="210" height="60" as="geometry" />
        </mxCell>
        <mxCell id="KNs_eEzD3WBDnFdoHL3F-41" value="1.启动预加载 preload();&lt;br&gt;2.startSystemServer会fork并配置子进程system_server&lt;br&gt;3.通过RuntimeInit反射调用启动SystemServer.main" style="text;html=1;strokeColor=none;fillColor=none;align=center;verticalAlign=middle;whiteSpace=wrap;rounded=0;sketch=1;fontColor=#FEFAE0;" vertex="1" parent="WIyWlLk6GJQsqaUBKTNV-1">
          <mxGeometry x="1590" y="150" width="300" height="40" as="geometry" />
        </mxCell>
        <mxCell id="KNs_eEzD3WBDnFdoHL3F-46" value="" style="edgeStyle=orthogonalEdgeStyle;curved=1;rounded=1;sketch=1;orthogonalLoop=1;jettySize=auto;html=1;strokeColor=#DDA15E;fillColor=#BC6C25;fontColor=#FEFAE0;" edge="1" parent="WIyWlLk6GJQsqaUBKTNV-1" source="KNs_eEzD3WBDnFdoHL3F-42" target="KNs_eEzD3WBDnFdoHL3F-45">
          <mxGeometry relative="1" as="geometry" />
        </mxCell>
        <mxCell id="KNs_eEzD3WBDnFdoHL3F-42" value="SystemServer.java.main()" style="whiteSpace=wrap;html=1;rounded=1;shadow=0;fontColor=#FEFAE0;strokeColor=#DDA15E;strokeWidth=1;fillColor=#BC6C25;glass=0;sketch=1;" vertex="1" parent="WIyWlLk6GJQsqaUBKTNV-1">
          <mxGeometry x="1970" y="70" width="240" height="60" as="geometry" />
        </mxCell>
        <mxCell id="KNs_eEzD3WBDnFdoHL3F-44" value="1.初始化Looper;Looper.prepareMainLooper();&lt;br&gt;2.加载服务的JNI库：System.loadLibrary(&quot;android_servers&quot;);&lt;br&gt;3.创建SystemServiceManager&lt;br&gt;4.启动Android服务&lt;br&gt;startBootstrapServices&lt;br&gt;startCoreServices&lt;br&gt;startOtherServices(会执行ActivityManagerService.systemReady)" style="text;html=1;strokeColor=none;fillColor=none;align=center;verticalAlign=middle;whiteSpace=wrap;rounded=0;sketch=1;fontColor=#FEFAE0;" vertex="1" parent="WIyWlLk6GJQsqaUBKTNV-1">
          <mxGeometry x="1891.25" y="140" width="397.5" height="110" as="geometry" />
        </mxCell>
        <mxCell id="KNs_eEzD3WBDnFdoHL3F-49" value="" style="edgeStyle=orthogonalEdgeStyle;curved=1;rounded=1;sketch=1;orthogonalLoop=1;jettySize=auto;html=1;strokeColor=#DDA15E;fillColor=#BC6C25;fontColor=#FEFAE0;" edge="1" parent="WIyWlLk6GJQsqaUBKTNV-1" source="KNs_eEzD3WBDnFdoHL3F-45" target="KNs_eEzD3WBDnFdoHL3F-48">
          <mxGeometry relative="1" as="geometry" />
        </mxCell>
        <mxCell id="KNs_eEzD3WBDnFdoHL3F-45" value="ActivityManagerService.java.systemReady()" style="whiteSpace=wrap;html=1;rounded=1;shadow=0;fontColor=#FEFAE0;strokeColor=#DDA15E;strokeWidth=1;fillColor=#BC6C25;glass=0;sketch=1;" vertex="1" parent="WIyWlLk6GJQsqaUBKTNV-1">
          <mxGeometry x="2350" y="70" width="260" height="60" as="geometry" />
        </mxCell>
        <mxCell id="KNs_eEzD3WBDnFdoHL3F-47" value="1.系统准备工作systemReady()&lt;br&gt;2.发送开机广播finishBooting()&lt;br&gt;3.启动桌面应用startHomeActivityLocked()&lt;br&gt;" style="text;html=1;strokeColor=none;fillColor=none;align=center;verticalAlign=middle;whiteSpace=wrap;rounded=0;sketch=1;fontColor=#FEFAE0;" vertex="1" parent="WIyWlLk6GJQsqaUBKTNV-1">
          <mxGeometry x="2281.25" y="150" width="397.5" height="50" as="geometry" />
        </mxCell>
        <mxCell id="KNs_eEzD3WBDnFdoHL3F-48" value="Launcher" style="whiteSpace=wrap;html=1;rounded=1;shadow=0;fontColor=#FEFAE0;strokeColor=#DDA15E;strokeWidth=1;fillColor=#BC6C25;glass=0;sketch=1;" vertex="1" parent="WIyWlLk6GJQsqaUBKTNV-1">
          <mxGeometry x="2760" y="70" width="120" height="60" as="geometry" />
        </mxCell>
        <mxCell id="KNs_eEzD3WBDnFdoHL3F-50" value="App进程" style="text;html=1;strokeColor=none;fillColor=none;align=center;verticalAlign=middle;whiteSpace=wrap;rounded=0;sketch=1;fontColor=#FEFAE0;" vertex="1" parent="WIyWlLk6GJQsqaUBKTNV-1">
          <mxGeometry x="2790" y="40" width="50" height="20" as="geometry" />
        </mxCell>
        <mxCell id="KNs_eEzD3WBDnFdoHL3F-51" value="startHomeActivityLocked" style="text;html=1;strokeColor=none;fillColor=none;align=center;verticalAlign=middle;whiteSpace=wrap;rounded=0;sketch=1;fontColor=#FEFAE0;" vertex="1" parent="WIyWlLk6GJQsqaUBKTNV-1">
          <mxGeometry x="2630" y="60" width="110" height="20" as="geometry" />
        </mxCell>
      </root>
    </mxGraphModel>
  </diagram>
</mxfile>
